<svg xmlns="http://www.w3.org/2000/svg" viewBox="0 0 8.06 8.95"><defs><style>.cls-1{opacity:0.72;}.cls-2{fill:#009444;}.cls-3{fill:#ed1c24;}.cls-4{fill:#f7941d;}</style></defs><title>Asset 1</title><g id="Layer_2" data-name="Layer 2"><g id="Layer_1-2" data-name="Layer 1"><g class="cls-1"><path class="cls-2" d="M4.1,2.49S4,2.53,4,2.57a8.34,8.34,0,0,1-.1,2.33A.06.06,0,0,0,4,5H4a.08.08,0,0,0,.09-.06,8.17,8.17,0,0,0,.1-2.37A.07.07,0,0,0,4.1,2.49Z"/><path class="cls-2" d="M6.07,2A2,2,0,0,0,4.34.53a2,2,0,0,0-.8.07,2.9,2.9,0,0,0-.41.16.07.07,0,0,0,0,.1.07.07,0,0,0,.1,0A2.5,2.5,0,0,1,3.58.75,1.69,1.69,0,0,1,4.32.68,1.89,1.89,0,0,1,5.93,2,4.39,4.39,0,0,1,6,3.16a.07.07,0,0,0,.07.07h0a.08.08,0,0,0,.08-.07A4.54,4.54,0,0,0,6.07,2Z"/><path class="cls-2" d="M2.87,1.11a.08.08,0,0,0,0-.11.08.08,0,0,0-.11,0,2.27,2.27,0,0,0-.69,2.36.07.07,0,0,0,.07.06h0a.08.08,0,0,0,.06-.09A2.13,2.13,0,0,1,2.87,1.11Z"/><path class="cls-2" d="M4.35,1A1.42,1.42,0,0,0,3.67,1,1.58,1.58,0,0,0,2.55,2.82a2.13,2.13,0,0,1,0,.25,8.67,8.67,0,0,1-.09,1.06.1.1,0,0,0,.07.09.08.08,0,0,0,.08-.07,9.32,9.32,0,0,0,.09-1.09,2.06,2.06,0,0,0,0-.26A1.43,1.43,0,0,1,4.33,1.14,1.63,1.63,0,0,1,5.54,2.31a6.91,6.91,0,0,1-.08,2,.07.07,0,0,0,.06.09.08.08,0,0,0,.09-.07,6.53,6.53,0,0,0,.07-2A1.75,1.75,0,0,0,4.35,1Z"/><path class="cls-2" d="M4.24,1.43a1,1,0,0,0-.24,0s-.08,0-.07.09A.06.06,0,0,0,4,1.58h.21a1,1,0,0,1,.84.7A6.53,6.53,0,0,1,5,4.63.06.06,0,0,0,5,4.71H5a.1.1,0,0,0,.09-.07A6.12,6.12,0,0,0,5.2,2.24,1.13,1.13,0,0,0,4.24,1.43Z"/><path class="cls-2" d="M3.65,1.7a.09.09,0,0,0,0-.11.09.09,0,0,0-.11,0A1.23,1.23,0,0,0,3,2.82,6.27,6.27,0,0,1,3,4.27a.08.08,0,0,0,.07.08.08.08,0,0,0,.08-.07,5.38,5.38,0,0,0,0-1.48A1,1,0,0,1,3.65,1.7Z"/><path class="cls-2" d="M4.69,4.22a.08.08,0,0,0-.07-.08h0a.06.06,0,0,0-.08.06c0,.06,0,.14,0,.23s0,.28,0,.38,0,.07.06.08h0s.07,0,.08-.06,0-.25,0-.38S4.68,4.28,4.69,4.22Z"/><path class="cls-2" d="M4.18,2A.58.58,0,0,0,4,2a.61.61,0,0,0-.42.73,12.12,12.12,0,0,1-.11,2,.08.08,0,0,0,.07.08.06.06,0,0,0,.08-.06,12.17,12.17,0,0,0,.11-2A.46.46,0,0,1,4,2.13a.37.37,0,0,1,.18,0,.45.45,0,0,1,.38.32,4.31,4.31,0,0,1,0,1.4.08.08,0,0,0,.07.08h0a.06.06,0,0,0,.08-.06,4.69,4.69,0,0,0,0-1.46A.6.6,0,0,0,4.18,2Z"/></g><path class="cls-3" d="M7.64,7.26H.42L.1,7.82A.75.75,0,0,0,.76,9H7.31A.75.75,0,0,0,8,7.82Z"/><path class="cls-4" d="M5.89,4.63a3.37,3.37,0,0,1-.36.3l.12.2A.76.76,0,0,1,5,6.26H3.07a.75.75,0,0,1-.65-1.13l.11-.2a3.27,3.27,0,0,1-.35-.3L1,6.72H7.09Z"/><path class="cls-4" d="M4,5.38A2.69,2.69,0,1,1,6.72,2.69,2.7,2.7,0,0,1,4,5.38ZM4,.25A2.44,2.44,0,1,0,6.47,2.69,2.44,2.44,0,0,0,4,.25Z"/></g></g></svg>