<svg xmlns="http://www.w3.org/2000/svg" viewBox="0 0 8.06 8.95"><defs><style>.cls-1{fill:#8dc63f;}.cls-2{fill:#ed1c24;}.cls-3{fill:#f7941d;}</style></defs><title>Asset 3</title><g id="Layer_2" data-name="Layer 2"><g id="Layer_1-2" data-name="Layer 1"><path class="cls-1" d="M4.1,2.52a.08.08,0,0,0,0,.08,7.08,7.08,0,0,1-.09,2A.07.07,0,0,0,4,4.66H4a.07.07,0,0,0,.07-.06,7.33,7.33,0,0,0,.09-2A.08.08,0,0,0,4.1,2.52Z"/><path class="cls-1" d="M5.79,2.09A1.75,1.75,0,0,0,4.31.85a2,2,0,0,0-.69.06l-.35.14a.08.08,0,0,0,0,.09.08.08,0,0,0,.09,0A1.62,1.62,0,0,1,3.66,1,1.69,1.69,0,0,1,4.29,1,1.6,1.6,0,0,1,5.66,2.12a3.64,3.64,0,0,1,.08,1,.06.06,0,0,0,.06.06h0a.06.06,0,0,0,.06-.06A3.63,3.63,0,0,0,5.79,2.09Z"/><path class="cls-1" d="M3.05,1.35a.06.06,0,0,0,0-.09.06.06,0,0,0-.09,0,1.91,1.91,0,0,0-.6,2,.06.06,0,0,0,.06.05h0a.06.06,0,0,0,0-.07A1.84,1.84,0,0,1,3.05,1.35Z"/><path class="cls-1" d="M4.31,1.24a1.43,1.43,0,0,0-.58.05,1.34,1.34,0,0,0-1,1.52A1.49,1.49,0,0,1,2.8,3a7.08,7.08,0,0,1-.07.91.05.05,0,0,0,0,.07.07.07,0,0,0,.08,0A7.43,7.43,0,0,0,2.93,3a.85.85,0,0,0,0-.23,1.23,1.23,0,0,1,.87-1.38,1.31,1.31,0,0,1,.52,0,1.4,1.4,0,0,1,1,1,5.61,5.61,0,0,1-.07,1.7.07.07,0,0,0,.06.07s.07,0,.07-.05a5.94,5.94,0,0,0,.07-1.75A1.53,1.53,0,0,0,4.31,1.24Z"/><path class="cls-1" d="M4.22,1.62H4A.09.09,0,0,0,4,1.7.07.07,0,0,0,4,1.75h.18a.85.85,0,0,1,.71.6,5.32,5.32,0,0,1-.09,2,.07.07,0,0,0,.06.07h0A.07.07,0,0,0,5,4.37,5.1,5.1,0,0,0,5,2.31,1,1,0,0,0,4.22,1.62Z"/><path class="cls-1" d="M3.71,1.85a.07.07,0,0,0,0-.09.07.07,0,0,0-.09,0,1,1,0,0,0-.48,1.07,5.11,5.11,0,0,1,0,1.24.07.07,0,0,0,.06.07.09.09,0,0,0,.07-.06,5.46,5.46,0,0,0,0-1.27A.9.9,0,0,1,3.71,1.85Z"/><path class="cls-1" d="M4.6,4a.05.05,0,0,0,0-.07h0A.05.05,0,0,0,4.48,4a1,1,0,0,0,0,.2c0,.11,0,.24,0,.32s0,.06.05.07h0s.07,0,.07-.06a2.53,2.53,0,0,0,0-.32C4.59,4.12,4.6,4.06,4.6,4Z"/><path class="cls-1" d="M4.17,2.07a.68.68,0,0,0-.2,0,.55.55,0,0,0-.36.63,10.17,10.17,0,0,1-.09,1.69.07.07,0,0,0,.06.07.07.07,0,0,0,.07-.06,11.37,11.37,0,0,0,.09-1.73A.39.39,0,0,1,4,2.22a.39.39,0,0,1,.15,0,.41.41,0,0,1,.33.28,3.59,3.59,0,0,1,0,1.19s0,.07.06.07h0a.05.05,0,0,0,.07-.05,3.68,3.68,0,0,0,0-1.25A.53.53,0,0,0,4.17,2.07Z"/><path class="cls-2" d="M7.64,7.26H.42L.1,7.82A.75.75,0,0,0,.76,9H7.31A.75.75,0,0,0,8,7.82Z"/><path class="cls-3" d="M5.89,4.63a3.37,3.37,0,0,1-.36.3l.12.2A.76.76,0,0,1,5,6.26H3.07a.75.75,0,0,1-.65-1.13l.11-.2a3.27,3.27,0,0,1-.35-.3L1,6.72H7.09Z"/><path class="cls-3" d="M4,5.38A2.69,2.69,0,1,1,6.72,2.69,2.7,2.7,0,0,1,4,5.38ZM4,.25A2.44,2.44,0,1,0,6.47,2.69,2.44,2.44,0,0,0,4,.25Z"/></g></g></svg>