<svg xmlns="http://www.w3.org/2000/svg" viewBox="0 0 8.59 9.73"><defs><style>.cls-1{fill:#f1f2f2;opacity:0.5;}.cls-2{opacity:0.72;}.cls-3{fill:#009444;}.cls-4{fill:#ed1c24;}.cls-5{fill:#f7941d;}</style></defs><title>Asset 2</title><g id="Layer_2" data-name="Layer 2"><g id="Layer_1-2" data-name="Layer 1"><rect class="cls-1" width="8.59" height="9.73" rx="0.89"/><g class="cls-2"><path class="cls-3" d="M4.37,2.84a.07.07,0,0,0-.06.09A8.6,8.6,0,0,1,4.2,5.25a.08.08,0,0,0,.06.09h0a.08.08,0,0,0,.08-.07,8.17,8.17,0,0,0,.1-2.37A.06.06,0,0,0,4.37,2.84Z"/><path class="cls-3" d="M6.34,2.33A2.05,2.05,0,0,0,4.6.88,2.16,2.16,0,0,0,3.8,1a2.9,2.9,0,0,0-.41.16.08.08,0,0,0,0,.1.08.08,0,0,0,.1,0,2.26,2.26,0,0,1,.39-.15A1.85,1.85,0,0,1,4.59,1a1.9,1.9,0,0,1,1.6,1.34,4.89,4.89,0,0,1,.1,1.14.09.09,0,0,0,.06.08h0a.09.09,0,0,0,.08-.08A4.9,4.9,0,0,0,6.34,2.33Z"/><path class="cls-3" d="M3.13,1.46a.08.08,0,0,0,0-.11.07.07,0,0,0-.1,0,2.25,2.25,0,0,0-.7,2.36.09.09,0,0,0,.07.06h0a.08.08,0,0,0,.06-.09A2.14,2.14,0,0,1,3.13,1.46Z"/><path class="cls-3" d="M4.61,1.34a1.56,1.56,0,0,0-.68,0A1.58,1.58,0,0,0,2.81,3.17a1.07,1.07,0,0,1,0,.25,8.67,8.67,0,0,1-.09,1.06.09.09,0,0,0,.07.09A.08.08,0,0,0,2.9,4.5,7.47,7.47,0,0,0,3,3.41a1.09,1.09,0,0,0,0-.26A1.43,1.43,0,0,1,4.59,1.49,1.63,1.63,0,0,1,5.8,2.66a6.64,6.64,0,0,1-.08,2,.08.08,0,0,0,.07.08s.08,0,.08-.06a7,7,0,0,0,.08-2A1.78,1.78,0,0,0,4.61,1.34Z"/><path class="cls-3" d="M4.5,1.78a1.92,1.92,0,0,0-.24,0,.1.1,0,0,0-.07.09.07.07,0,0,0,.09.06h.21a1,1,0,0,1,.83.7A6.3,6.3,0,0,1,5.22,5a.08.08,0,0,0,.06.09h0A.08.08,0,0,0,5.37,5a6.4,6.4,0,0,0,.1-2.41A1.14,1.14,0,0,0,4.5,1.78Z"/><path class="cls-3" d="M3.91,2.05a.07.07,0,0,0-.07-.13,1.18,1.18,0,0,0-.56,1.25,6,6,0,0,1,0,1.45.08.08,0,0,0,.07.08.07.07,0,0,0,.08-.07,5.41,5.41,0,0,0,0-1.48A1.06,1.06,0,0,1,3.91,2.05Z"/><path class="cls-3" d="M5,4.57a.06.06,0,0,0-.06-.08h0a.09.09,0,0,0-.09.07c0,.05,0,.14,0,.23a3.5,3.5,0,0,1,0,.37.08.08,0,0,0,.07.08h0a.06.06,0,0,0,.08-.06,3.71,3.71,0,0,0,0-.38C4.94,4.71,5,4.63,5,4.57Z"/><path class="cls-3" d="M4.45,2.31a.65.65,0,0,0-.24,0,.62.62,0,0,0-.42.73,12.12,12.12,0,0,1-.11,2,.1.1,0,0,0,.07.09.08.08,0,0,0,.08-.07,12.17,12.17,0,0,0,.11-2,.46.46,0,0,1,.31-.55.37.37,0,0,1,.18,0,.48.48,0,0,1,.39.32,5,5,0,0,1,0,1.4.07.07,0,0,0,.06.09h0A.08.08,0,0,0,5,4.2,4.67,4.67,0,0,0,5,2.74.61.61,0,0,0,4.45,2.31Z"/></g><path class="cls-4" d="M7.9,7.61H.69l-.32.56A.75.75,0,0,0,1,9.3H7.57a.75.75,0,0,0,.65-1.13Z"/><path class="cls-5" d="M6.15,5a3.51,3.51,0,0,1-.36.29l.12.2a.75.75,0,0,1-.66,1.13H3.34a.75.75,0,0,1-.66-1.13l.12-.2A3.51,3.51,0,0,1,2.44,5L1.24,7.07H7.35Z"/><path class="cls-5" d="M4.3,5.73A2.69,2.69,0,1,1,7,3,2.69,2.69,0,0,1,4.3,5.73ZM4.3.6A2.44,2.44,0,1,0,6.73,3,2.44,2.44,0,0,0,4.3.6Z"/></g></g></svg>